<svg width="400" height="300" viewBox="0 0 400 300" fill="none" xmlns="http://www.w3.org/2000/svg">
  <rect width="400" height="300" fill="url(#gradient)"/>
  <rect x="20" y="20" width="360" height="260" rx="12" fill="white" fill-opacity="0.1" stroke="white" stroke-opacity="0.2" stroke-width="1"/>
  
  <!-- Dashboard mockup -->
  <rect x="40" y="50" width="320" height="40" rx="8" fill="white" fill-opacity="0.15"/>
  <circle cx="60" cy="70" r="6" fill="#06b6d4"/>
  <rect x="80" y="65" width="60" height="10" rx="5" fill="white" fill-opacity="0.3"/>
  <rect x="320" y="65" width="20" height="10" rx="5" fill="#10b981"/>
  
  <!-- Chart area -->
  <rect x="40" y="110" width="200" height="120" rx="8" fill="white" fill-opacity="0.1"/>
  <path d="M50 200 Q80 170 110 180 T170 160 T230 140" stroke="#4338ca" stroke-width="3" fill="none"/>
  <circle cx="110" cy="180" r="4" fill="#4338ca"/>
  <circle cx="170" cy="160" r="4" fill="#4338ca"/>
  <circle cx="230" cy="140" r="4" fill="#4338ca"/>
  
  <!-- Stats cards -->
  <rect x="260" y="110" width="100" height="50" rx="8" fill="white" fill-opacity="0.15"/>
  <rect x="270" y="125" width="30" height="8" rx="4" fill="#06b6d4"/>
  <rect x="270" y="140" width="50" height="6" rx="3" fill="white" fill-opacity="0.4"/>
  
  <rect x="260" y="180" width="100" height="50" rx="8" fill="white" fill-opacity="0.15"/>
  <rect x="270" y="195" width="25" height="8" rx="4" fill="#10b981"/>
  <rect x="270" y="210" width="40" height="6" rx="3" fill="white" fill-opacity="0.4"/>
  
  <!-- Bottom section -->
  <rect x="40" y="250" width="150" height="20" rx="10" fill="url(#buttonGradient)"/>
  <text x="115" y="263" text-anchor="middle" fill="white" font-family="system-ui" font-size="12" font-weight="500">View Project</text>
  
  <defs>
    <linearGradient id="gradient" x1="0%" y1="0%" x2="100%" y2="100%">
      <stop offset="0%" style="stop-color:#1a1b4b;stop-opacity:1" />
      <stop offset="50%" style="stop-color:#4338ca;stop-opacity:1" />
      <stop offset="100%" style="stop-color:#06b6d4;stop-opacity:1" />
    </linearGradient>
    <linearGradient id="buttonGradient" x1="0%" y1="0%" x2="100%" y2="0%">
      <stop offset="0%" style="stop-color:#4338ca;stop-opacity:1" />
      <stop offset="100%" style="stop-color:#06b6d4;stop-opacity:1" />
    </linearGradient>
  </defs>
</svg> 