<svg width="120" height="40" viewBox="0 0 120 40" fill="none" xmlns="http://www.w3.org/2000/svg">
  <path d="M35.0391 12.6523H41.2109C42.6693 12.6523 43.8607 12.9948 44.7852 13.6797C45.7096 14.3646 46.1719 15.3034 46.1719 16.4961C46.1719 17.3034 45.9206 18.0117 45.418 18.6211C44.9154 19.2305 44.2435 19.6602 43.4023 19.9102V20.0195C44.418 20.2435 45.2214 20.6992 45.8125 21.3867C46.4036 22.0742 46.6992 22.9141 46.6992 23.9062C46.6992 25.2214 46.1927 26.2669 45.1797 27.043C44.1667 27.819 42.8125 28.207 41.1172 28.207H35.0391V12.6523ZM38.1719 18.8867H40.8164C41.6706 18.8867 42.3203 18.7005 42.7656 18.3281C43.2109 17.9557 43.4336 17.4453 43.4336 16.7969C43.4336 16.2057 43.2044 15.7474 42.7461 15.4219C42.2878 15.0964 41.6211 14.9336 40.7461 14.9336H38.1719V18.8867ZM38.1719 21.043V25.9258H41.1758C42.0508 25.9258 42.7266 25.7201 43.2031 25.3086C43.6797 24.8971 43.918 24.3346 43.918 23.6211C43.918 22.9206 43.6797 22.3711 43.2031 21.9727C42.7266 21.5742 42.0378 21.375 41.1367 21.375C41.085 21.375 41.0137 21.375 40.9227 21.375C40.8317 21.375 40.7539 21.375 40.6891 21.375C40.6242 21.375 40.5593 21.375 40.4945 21.375C40.4297 21.375 40.3779 21.3815 40.3391 21.3945H38.1719V21.043Z" fill="black"/>
  <path d="M56.3359 28.4844C54.9427 28.4844 53.7773 28.1966 52.8398 27.6211C51.9023 27.0456 51.2396 26.25 50.8516 25.2344C50.4635 24.2188 50.2695 23.0794 50.2695 21.8164C50.2695 20.5273 50.4635 19.3815 50.8516 18.3789C51.2396 17.3763 51.9023 16.5872 52.8398 16.0117C53.7773 15.4362 54.9427 15.1484 56.3359 15.1484C57.7292 15.1484 58.8945 15.4362 59.832 16.0117C60.7695 16.5872 61.4323 17.3763 61.8203 18.3789C62.2083 19.3815 62.4023 20.5273 62.4023 21.8164C62.4023 23.0794 62.2083 24.2188 61.8203 25.2344C61.4323 26.25 60.7695 27.0456 59.832 27.6211C58.8945 28.1966 57.7292 28.4844 56.3359 28.4844ZM56.3359 26.0664C57.388 26.0664 58.1771 25.7005 58.7031 24.9688C59.2292 24.237 59.4922 23.1693 59.4922 21.7656C59.4922 20.3359 59.2292 19.2617 58.7031 18.543C58.1771 17.8242 57.388 17.4648 56.3359 17.4648C55.2839 17.4648 54.4948 17.8242 53.9688 18.543C53.4427 19.2617 53.1797 20.3359 53.1797 21.7656C53.1797 23.1693 53.4427 24.237 53.9688 24.9688C54.4948 25.7005 55.2839 26.0664 56.3359 26.0664Z" fill="black"/>
  <path d="M66.4453 15.4258H69.2188V17.25H69.3281C69.6094 16.5625 70.0234 16.0312 70.5703 15.6562C71.1172 15.2812 71.7578 15.0938 72.4922 15.0938C72.7083 15.0938 72.918 15.1081 73.1211 15.1367C73.3242 15.1654 73.5078 15.2031 73.6719 15.25L73.1836 18.1133C72.9805 18.0456 72.7578 17.9922 72.5156 17.9531C72.2734 17.9141 72.0521 17.8945 71.8516 17.8945C71.3568 17.8945 70.9115 17.9857 70.5156 18.168C70.1198 18.3503 69.8047 18.6146 69.5703 18.9609C69.3359 19.3073 69.2188 19.7188 69.2188 20.1953V28.207H66.4453V15.4258Z" fill="black"/>
  <path d="M80.3516 28.4844C79.2604 28.4844 78.293 28.2357 77.4492 27.7383C76.6055 27.2409 75.9492 26.5312 75.4805 25.6094C75.0117 24.6875 74.7773 23.5833 74.7773 22.2969C74.7773 21.0234 75.0117 19.9258 75.4805 19.0039C75.9492 18.082 76.599 17.3724 77.4297 16.875C78.2604 16.3776 79.2148 16.1289 80.293 16.1289C81.0273 16.1289 81.6901 16.2539 82.2812 16.5039C82.8724 16.7539 83.3685 17.0964 83.7695 17.5312C84.1706 17.9661 84.4453 18.4375 84.5938 18.9453H84.7031V11.6406H87.4766V28.207H84.7617V25.6328H84.5938C84.4323 26.1536 84.1445 26.6315 83.7305 27.0664C83.3164 27.5013 82.8099 27.8503 82.2109 28.1133C81.612 28.3763 81.0143 28.4844 80.3516 28.4844ZM81.0938 26.1953C81.7604 26.1953 82.3255 26.0312 82.7891 25.7031C83.2526 25.375 83.6016 24.9089 83.8359 24.3047C84.0703 23.7005 84.1875 23.0065 84.1875 22.2227C84.1875 21.4388 84.0703 20.7448 83.8359 20.1406C83.6016 19.5365 83.2526 19.0703 82.7891 18.7422C82.3255 18.4141 81.7604 18.25 81.0938 18.25C80.4271 18.25 79.862 18.4141 79.3984 18.7422C78.9349 19.0703 78.5859 19.5365 78.3516 20.1406C78.1172 20.7448 78 21.4388 78 22.2227C78 23.0065 78.1172 23.7005 78.3516 24.3047C78.5859 24.9089 78.9349 25.375 79.3984 25.7031C79.862 26.0312 80.4271 26.1953 81.0938 26.1953Z" fill="black"/>
  <path d="M96.6406 28.4844C95.5364 28.4844 94.5493 28.2357 93.6797 27.7383C92.8102 27.2409 92.1341 26.5312 91.6523 25.6094C91.1706 24.6875 90.9297 23.5833 90.9297 22.2969C90.9297 21.0234 91.1706 19.9258 91.6523 19.0039C92.1341 18.082 92.8102 17.3724 93.6797 16.875C94.5493 16.3776 95.5364 16.1289 96.6406 16.1289C97.4922 16.1289 98.238 16.2734 98.8789 16.5625C99.5198 16.8516 100.034 17.2396 100.422 17.7266C100.809 18.2135 101.055 18.7656 101.156 19.3828H101.266V16.4062H103.988V28.207H101.266V25.2578H101.156C101.055 25.875 100.809 26.4271 100.422 26.9141C100.034 27.401 99.5198 27.7891 98.8789 28.0781C98.238 28.3672 97.4922 28.4844 96.6406 28.4844ZM97.3828 26.1953C98.0495 26.1953 98.6146 26.0312 99.0781 25.7031C99.5417 25.375 99.8906 24.9089 100.125 24.3047C100.359 23.7005 100.477 23.0065 100.477 22.2227C100.477 21.4388 100.359 20.7448 100.125 20.1406C99.8906 19.5365 99.5417 19.0703 99.0781 18.7422C98.6146 18.4141 98.0495 18.25 97.3828 18.25C96.7161 18.25 96.151 18.4141 95.6875 18.7422C95.224 19.0703 94.875 19.5365 94.6406 20.1406C94.4062 20.7448 94.2891 21.4388 94.2891 22.2227C94.2891 23.0065 94.4062 23.7005 94.6406 24.3047C94.875 24.9089 95.224 25.375 95.6875 25.7031C96.151 26.0312 96.7161 26.1953 97.3828 26.1953Z" fill="black"/>
</svg> 