<svg width="120" height="40" viewBox="0 0 120 40" fill="none" xmlns="http://www.w3.org/2000/svg">
  <path d="M19.9998 15.3334C19.6451 15.3334 19.3333 15.6452 19.3333 16.0001V17.3334C19.3333 17.6882 19.6451 18.0001 19.9998 18.0001H30.9998C31.3546 18.0001 31.6663 17.6882 31.6663 17.3334V16.0001C31.6663 15.6452 31.3546 15.3334 30.9998 15.3334H19.9998Z" fill="black"/>
  <path d="M18.6666 22C18.6666 21.6452 18.9784 21.3334 19.3333 21.3334H30.3333C30.6881 21.3334 30.9999 21.6452 30.9999 22V23.3334C30.9999 23.6882 30.6881 24.0001 30.3333 24.0001H19.3333C18.9784 24.0001 18.6666 23.6882 18.6666 23.3334V22Z" fill="black"/>
  <path fill-rule="evenodd" clip-rule="evenodd" d="M20.5712 9C20.0189 9 19.5712 9.44772 19.5712 10V26.0001C19.5712 26.5524 20.0189 27.0001 20.5712 27.0001H29.3333C29.8856 27.0001 30.3333 26.5524 30.3333 26.0001V18.0001H26.3333C25.7811 18.0001 25.3333 17.5524 25.3333 17.0001V10C25.3333 9.44772 24.8856 9 24.3333 9H20.5712Z" fill="black"/>
  <path d="M8 21.5C8 16.8056 11.8056 13 16.5 13V24.0001C16.5 28.6944 12.6944 32.5001 8 32.5001V21.5Z" fill="black"/>
  <path d="M44.5469 15.3438H40.2031V24H38.25V15.3438H33.9375V13.6562H44.5469V15.3438Z" fill="black"/>
  <path d="M46.8594 24H45.0312V16.5H46.8594V24ZM44.9062 14.2188C44.9062 13.9479 44.9896 13.7188 45.1562 13.5312C45.3281 13.3438 45.5729 13.25 45.8906 13.25C46.2083 13.25 46.4531 13.3438 46.625 13.5312C46.7969 13.7188 46.8828 13.9479 46.8828 14.2188C46.8828 14.4896 46.7969 14.7188 46.625 14.9062C46.4531 15.0938 46.2083 15.1875 45.8906 15.1875C45.5729 15.1875 45.3281 15.0938 45.1562 14.9062C44.9896 14.7188 44.9062 14.4896 44.9062 14.2188Z" fill="black"/>
  <path d="M53.1719 24.1562C52.3073 24.1562 51.5677 23.9896 50.9531 23.6562C50.3385 23.3177 49.8646 22.8385 49.5312 22.2188C49.1979 21.599 49.0312 20.8802 49.0312 20.0625C49.0312 19.2448 49.1979 18.5208 49.5312 17.8906C49.8698 17.2604 50.3438 16.776 50.9531 16.4375C51.5677 16.0938 52.3073 15.9219 53.1719 15.9219C54.0365 15.9219 54.776 16.0938 55.3906 16.4375C56.0052 16.776 56.4792 17.2604 56.8125 17.8906C57.151 18.5208 57.3203 19.2448 57.3203 20.0625C57.3203 20.8802 57.151 21.599 56.8125 22.2188C56.4792 22.8385 56.0052 23.3177 55.3906 23.6562C54.776 23.9896 54.0365 24.1562 53.1719 24.1562ZM53.1719 22.5781C53.6615 22.5781 54.0885 22.4688 54.4531 22.25C54.8177 22.0312 55.099 21.7135 55.2969 21.2969C55.4948 20.8802 55.5938 20.4062 55.5938 19.875C55.5938 19.3438 55.4948 18.8698 55.2969 18.4531C55.099 18.0365 54.8177 17.7188 54.4531 17.5C54.0885 17.2812 53.6615 17.1719 53.1719 17.1719C52.6823 17.1719 52.2552 17.2812 51.8906 17.5C51.526 17.7188 51.2448 18.0365 51.0469 18.4531C50.849 18.8698 50.75 19.3438 50.75 19.875C50.75 20.4062 50.849 20.8802 51.0469 21.2969C51.2448 21.7135 51.526 22.0312 51.8906 22.25C52.2552 22.4688 52.6823 22.5781 53.1719 22.5781Z" fill="black"/>
  <path d="M62.9688 15.9219C63.7188 15.9219 64.3646 16.0729 64.9062 16.375C65.4479 16.6719 65.8594 17.1094 66.1406 17.6875C66.4219 18.2656 66.5625 18.9688 66.5625 19.7969V24H64.7344V20.0156C64.7344 19.1198 64.5312 18.4427 64.125 17.9844C63.7188 17.526 63.1615 17.2969 62.4531 17.2969C61.7344 17.2969 61.1667 17.5312 60.75 18C60.3333 18.4635 60.125 19.151 60.125 20.0625V24H58.2969V16.5H60.0312V17.4844H60.125C60.3854 17.1198 60.7396 16.8281 61.1875 16.6094C61.6354 16.151 62.2187 15.9219 62.9688 15.9219Z" fill="black"/>
  <path d="M70.9219 24H69.0938V12.5H70.9219V24Z" fill="black"/>
  <path d="M77.2031 24.125C76.4427 24.125 75.7708 23.9688 75.1875 23.6562C74.6042 23.3438 74.151 22.8906 73.8281 22.2969C73.5104 21.7031 73.3516 21 73.3516 20.1875C73.3516 19.3958 73.5104 18.6979 73.8281 18.0938C74.151 17.4896 74.599 17.026 75.1719 16.7031C75.7448 16.375 76.4115 16.2109 77.1719 16.2109C77.9323 16.2109 78.5885 16.375 79.1406 16.7031C79.6979 17.026 80.125 17.4792 80.4219 18.0625C80.724 18.6458 80.875 19.3125 80.875 20.0625C80.875 20.1667 80.8698 20.276 80.8594 20.3906C80.8542 20.5052 80.8437 20.6146 80.8281 20.7188H75.1719V19.4688H79.7031L78.9531 19.8281C78.9531 19.3594 78.8698 18.9531 78.7031 18.6094C78.5365 18.2656 78.3021 18 78 17.8125C77.698 17.625 77.3385 17.5312 76.9219 17.5312C76.5052 17.5312 76.1458 17.625 75.8438 17.8125C75.5417 18 75.3073 18.276 75.1406 18.6406C74.974 19 74.8906 19.4375 74.8906 19.9531V20.2344C74.8906 20.7708 74.9792 21.2292 75.1562 21.6094C75.3333 21.9844 75.5886 22.2656 75.9219 22.4531C76.2552 22.6406 76.6563 22.7344 77.125 22.7344C77.5729 22.7344 77.9531 22.6615 78.2656 22.5156C78.5781 22.3698 78.8385 22.151 79.0469 21.8594L80.2812 22.8594C80 23.2031 79.6354 23.4844 79.1875 23.7031C78.7396 23.9219 78.2031 24.0313 77.5781 24.0313L77.2031 24.125Z" fill="black"/>
  <path d="M85.7656 24.125C84.9844 24.125 84.3385 23.9896 83.8281 23.7188C83.3177 23.4427 82.9375 23.0729 82.6875 22.6094C82.4375 22.1458 82.3125 21.6198 82.3125 21.0312C82.3125 20.4844 82.4115 20.0156 82.6094 19.625C82.8073 19.2344 83.0833 18.9115 83.4375 18.6562C83.7917 18.401 84.1979 18.2083 84.6562 18.0781C85.1198 17.9427 85.6094 17.8438 86.125 17.7812C86.7344 17.7083 87.2188 17.651 87.5781 17.6094C87.9375 17.5625 88.1927 17.4896 88.3438 17.3906C88.4948 17.2917 88.5703 17.1458 88.5703 16.9531V16.9062C88.5703 16.4167 88.4271 16.0417 88.1406 15.7812C87.8542 15.5208 87.4479 15.3906 86.9219 15.3906C86.3646 15.3906 85.9219 15.5104 85.5938 15.75C85.2708 15.9896 85.0677 16.276 84.9844 16.6094L83.2812 16.2031C83.4062 15.6406 83.6354 15.1823 83.9688 14.8281C84.3021 14.4688 84.7135 14.2031 85.2031 14.0312C85.6927 13.8542 86.2344 13.7656 86.8281 13.7656C87.224 13.7656 87.6302 13.8125 88.0469 13.9062C88.4688 13.9948 88.8594 14.151 89.2188 14.375C89.5833 14.599 89.8802 14.9115 90.1094 15.3125C90.3385 15.7083 90.4531 16.2135 90.4531 16.8281V24H88.6719V22.7031H88.6094C88.474 23.0156 88.2812 23.2865 88.0312 23.5156C87.7812 23.7396 87.474 23.9167 87.1094 24.0469C86.7448 24.099 86.3125 24.125 85.7656 24.125ZM86.2969 22.5469C86.75 22.5469 87.1406 22.4531 87.4688 22.2656C87.8021 22.0781 88.0573 21.8281 88.2344 21.5156C88.4115 21.1979 88.5 20.849 88.5 20.4688V18.7344C88.4375 18.7969 88.3125 18.8594 88.125 18.9219C87.9427 18.9792 87.7344 19.0312 87.5 19.0781C87.2656 19.1198 87.0365 19.1562 86.8125 19.1875C86.5885 19.2135 86.401 19.2396 86.25 19.2656C85.9167 19.3177 85.6198 19.401 85.3594 19.5156C85.099 19.625 84.8958 19.776 84.75 19.9688C84.6094 20.1562 84.5391 20.3958 84.5391 20.6875C84.5391 21.1042 84.6979 21.4219 85.0156 21.6406C85.3333 21.8594 85.7604 21.9688 86.2969 21.9688V22.5469Z" fill="black"/>
  <path d="M95.5391 24.125C94.8047 24.125 94.1667 23.9844 93.625 23.7031C93.0833 23.4219 92.6615 23.0208 92.3594 22.5C92.0573 21.974 91.9062 21.349 91.9062 20.625C91.9062 19.9062 92.0521 19.2396 92.3438 18.625C92.6406 18.0052 93.0521 17.5 93.5781 17.1094C94.1042 16.7188 94.6979 16.5234 95.3594 16.5234C95.974 16.5234 96.4583 16.651 96.8125 16.9062C97.1667 17.1562 97.4323 17.4323 97.6094 17.7344H97.6719V12.5H99.5V24H97.7344V22.9219H97.6094C97.4219 23.25 97.1458 23.5365 96.7812 23.7812C96.4167 24.0104 95.7187 24.125 95.5391 24.125ZM96.0469 22.5781C96.5469 22.5781 96.9688 22.4531 97.3125 22.2031C97.6562 21.9479 97.9167 21.599 98.0938 21.1562C98.276 20.7083 98.3672 20.2031 98.3672 19.6406C98.3672 19.0729 98.2786 18.5781 98.1016 18.1562C97.9297 17.7344 97.6745 17.401 97.3359 17.1562C96.9974 16.9115 96.5781 16.7891 96.0781 16.7891C95.5573 16.7891 95.1224 16.9167 94.7734 17.1719C94.4245 17.4271 94.1615 17.7708 93.9844 18.2031C93.8125 18.6302 93.7266 19.1094 93.7266 19.6406C93.7266 20.1823 93.8151 20.6719 93.9922 21.1094C94.1693 21.5417 94.4323 21.8854 94.7812 22.1406C95.1302 22.3906 95.5573 22.5156 96.0469 22.5156V22.5781Z" fill="black"/>
  <path d="M102.078 24V16.5H103.953V17.7969H104.047C104.266 17.3281 104.594 16.9531 105.031 16.6719C105.474 16.3854 105.984 16.2422 106.562 16.2422C107.156 16.2422 107.661 16.3906 108.078 16.6875C108.495 16.9844 108.797 17.3802 108.984 17.875H109.078C109.302 17.4062 109.646 17.0156 110.109 16.7031C110.573 16.3906 111.125 16.2344 111.766 16.2344C112.604 16.2344 113.284 16.5052 113.805 17.0469C114.336 17.5833 114.602 18.3906 114.602 19.4688V24H112.773V19.7188C112.773 19.0938 112.599 18.6302 112.25 18.3281C111.901 18.026 111.479 17.875 110.984 17.875C110.396 17.875 109.932 18.0573 109.594 18.4219C109.255 18.7865 109.086 19.2604 109.086 19.8438V24H107.281V19.625C107.281 19.0938 107.112 18.6667 106.773 18.3438C106.435 18.0156 106.01 17.8516 105.5 17.8516C105.156 17.8516 104.839 17.9375 104.547 18.1094C104.26 18.276 104.031 18.5156 103.859 18.8281C103.693 19.1354 103.609 19.5052 103.609 19.9375V24H101.781H102.078Z" fill="black"/>
</svg> 