<svg width="120" height="40" viewBox="0 0 120 40" fill="none" xmlns="http://www.w3.org/2000/svg">
  <path d="M9.46 26V14.48H13.9C15.38 14.48 16.52 14.82 17.32 15.5C18.12 16.18 18.52 17.14 18.52 18.38C18.52 19.62 18.12 20.58 17.32 21.26C16.52 21.94 15.38 22.28 13.9 22.28H11.3V26H9.46ZM11.3 20.68H13.78C14.7 20.68 15.38 20.5 15.82 20.14C16.26 19.78 16.48 19.18 16.48 18.34C16.48 17.5 16.26 16.9 15.82 16.54C15.38 16.18 14.7 16 13.78 16H11.3V20.68Z" fill="black"/>
  <path d="M27.9447 26L27.8247 24.76C27.5047 25.2 27.0947 25.54 26.5947 25.78C26.0947 26.02 25.5447 26.14 24.9447 26.14C23.9047 26.14 23.0747 25.82 22.4547 25.18C21.8347 24.54 21.5247 23.64 21.5247 22.48V16.78H23.2247V22.24C23.2247 22.96 23.3847 23.5 23.7047 23.86C24.0247 24.22 24.5247 24.4 25.2047 24.4C25.9647 24.4 26.5647 24.16 27.0047 23.68C27.4447 23.2 27.6647 22.5 27.6647 21.58V16.78H29.3647V26H27.9447Z" fill="black"/>
  <path d="M32.6872 13H34.3872V26H32.6872V13Z" fill="black"/>
  <path d="M37.0547 21.4C37.0547 20.52 37.2347 19.74 37.5947 19.06C37.9547 18.38 38.4547 17.86 39.0947 17.5C39.7347 17.14 40.4747 16.96 41.3147 16.96C42.1547 16.96 42.8947 17.14 43.5347 17.5C44.1747 17.86 44.6747 18.38 45.0347 19.06C45.3947 19.74 45.5747 20.52 45.5747 21.4C45.5747 22.28 45.3947 23.06 45.0347 23.74C44.6747 24.42 44.1747 24.94 43.5347 25.3C42.8947 25.66 42.1547 25.84 41.3147 25.84C40.4747 25.84 39.7347 25.66 39.0947 25.3C38.4547 24.94 37.9547 24.42 37.5947 23.74C37.2347 23.06 37.0547 22.28 37.0547 21.4ZM38.7547 21.4C38.7547 21.98 38.8747 22.48 39.1147 22.9C39.3547 23.32 39.6747 23.64 40.0747 23.86C40.4747 24.08 40.9147 24.19 41.3947 24.19C41.8747 24.19 42.3147 24.08 42.7147 23.86C43.1147 23.64 43.4347 23.32 43.6747 22.9C43.9147 22.48 44.0347 21.98 44.0347 21.4C44.0347 20.82 43.9147 20.32 43.6747 19.9C43.4347 19.48 43.1147 19.16 42.7147 18.94C42.3147 18.72 41.8747 18.61 41.3947 18.61C40.9147 18.61 40.4747 18.72 40.0747 18.94C39.6747 19.16 39.3547 19.48 39.1147 19.9C38.8747 20.32 38.7547 20.82 38.7547 21.4Z" fill="black"/>
  <path d="M52.0322 26.14C51.1122 26.14 50.3122 25.96 49.6322 25.6C48.9522 25.24 48.4222 24.72 48.0422 24.04C47.6622 23.36 47.4722 22.56 47.4722 21.64C47.4722 20.72 47.6622 19.92 48.0422 19.24C48.4222 18.56 48.9522 18.04 49.6322 17.68C50.3122 17.32 51.1122 17.14 52.0322 17.14C52.8322 17.14 53.5322 17.3 54.1322 17.62C54.7322 17.94 55.1722 18.4 55.4522 19H55.5722V17.24H57.2722V26.36C57.2722 27.2 57.0822 27.94 56.7022 28.58C56.3222 29.22 55.7922 29.72 55.1122 30.08C54.4322 30.44 53.6322 30.62 52.7122 30.62C51.5522 30.62 50.5922 30.36 49.8322 29.84C49.0722 29.32 48.5922 28.62 48.3922 27.74H50.0722C50.2722 28.22 50.6322 28.6 51.1522 28.88C51.6722 29.16 52.2322 29.3 52.8322 29.3C53.5522 29.3 54.1522 29.14 54.6322 28.82C55.1122 28.5 55.4722 28.04 55.7122 27.44C55.9522 26.84 56.0722 26.12 56.0722 25.28V24.08H55.9522C55.6722 24.68 55.2322 25.16 54.6322 25.52C54.0322 25.88 53.0722 26.14 52.0322 26.14ZM52.3122 24.52C52.8322 24.52 53.2922 24.4 53.6922 24.16C54.0922 23.92 54.4122 23.58 54.6522 23.14C54.8922 22.7 55.0122 22.18 55.0122 21.58C55.0122 20.98 54.8922 20.46 54.6522 20.02C54.4122 19.58 54.0922 19.24 53.6922 19C53.2922 18.76 52.8322 18.64 52.3122 18.64C51.7922 18.64 51.3322 18.76 50.9322 19C50.5322 19.24 50.2122 19.58 49.9722 20.02C49.7322 20.46 49.6122 20.98 49.6122 21.58C49.6122 22.18 49.7322 22.7 49.9722 23.14C50.2122 23.58 50.5322 23.92 50.9322 24.16C51.3322 24.4 51.7922 24.52 52.3122 24.52Z" fill="black"/>
  <path d="M65.9697 26.14C65.0497 26.14 64.2297 25.96 63.5097 25.6C62.7897 25.24 62.2297 24.72 61.8297 24.04C61.4297 23.36 61.2297 22.56 61.2297 21.64C61.2297 20.72 61.4297 19.92 61.8297 19.24C62.2297 18.56 62.7897 18.04 63.5097 17.68C64.2297 17.32 65.0497 17.14 65.9697 17.14C67.1697 17.14 68.1497 17.44 68.9097 18.04C69.6697 18.64 70.1497 19.48 70.3497 20.56H68.5697C68.4497 19.96 68.1697 19.48 67.7297 19.12C67.2897 18.76 66.7097 18.58 65.9897 18.58C65.0697 18.58 64.3497 18.88 63.8297 19.48C63.3097 20.08 63.0497 20.92 63.0497 22C63.0497 23.08 63.3097 23.92 63.8297 24.52C64.3497 25.12 65.0697 25.42 65.9897 25.42C67.1897 25.42 67.9897 24.84 68.3897 23.68H70.1697C69.9697 24.72 69.4897 25.54 68.7297 26.14C67.9697 26.74 67.0497 27.04 65.9697 27.04V26.14Z" fill="black"/>
  <path d="M80.047 17.24L76.407 26H74.587L70.947 17.24H72.807L75.527 24.22H75.647L78.307 17.24H80.047Z" fill="black"/>
  <path d="M87.4545 26V13H89.2945V26H87.4545Z" fill="black"/>
  <path d="M92.2869 21.4C92.2869 20.52 92.4669 19.74 92.8269 19.06C93.1869 18.38 93.6869 17.86 94.3269 17.5C94.9669 17.14 95.7069 16.96 96.5469 16.96C97.3869 16.96 98.1269 17.14 98.7669 17.5C99.4069 17.86 99.9069 18.38 100.267 19.06C100.627 19.74 100.807 20.52 100.807 21.4C100.807 22.28 100.627 23.06 100.267 23.74C99.9069 24.42 99.4069 24.94 98.7669 25.3C98.1269 25.66 97.3869 25.84 96.5469 25.84C95.7069 25.84 94.9669 25.66 94.3269 25.3C93.6869 24.94 93.1869 24.42 92.8269 23.74C92.4669 23.06 92.2869 22.28 92.2869 21.4ZM93.9869 21.4C93.9869 21.98 94.1069 22.48 94.3469 22.9C94.5869 23.32 94.9069 23.64 95.3069 23.86C95.7069 24.08 96.1469 24.19 96.6269 24.19C97.1069 24.19 97.5469 24.08 97.9469 23.86C98.3469 23.64 98.6669 23.32 98.9069 22.9C99.1469 22.48 99.2669 21.98 99.2669 21.4C99.2669 20.82 99.1469 20.32 98.9069 19.9C98.6669 19.48 98.3469 19.16 97.9469 18.94C97.5469 18.72 97.1069 18.61 96.6269 18.61C96.1469 18.61 95.7069 18.72 95.3069 18.94C94.9069 19.16 94.5869 19.48 94.3469 19.9C94.1069 20.32 93.9869 20.82 93.9869 21.4Z" fill="black"/>
  <rect x="103.887" y="16.88" width="6" height="6" rx="3" fill="#FF6B00"/>
</svg> 