<svg width="120" height="40" viewBox="0 0 120 40" fill="none" xmlns="http://www.w3.org/2000/svg">
  <path d="M18.8472 29.2109C17.6315 29.2109 16.5868 28.9985 15.7132 28.5737C14.8396 28.1394 14.1699 27.5159 13.7042 26.7034C13.2385 25.8813 13.0056 24.9017 13.0056 23.7645C13.0056 22.6273 13.2385 21.653 13.7042 20.8416C14.1699 20.0301 14.8396 19.4074 15.7132 18.9732C16.5868 18.539 17.6315 18.3218 18.8472 18.3218C19.7835 18.3218 20.6184 18.4689 21.3519 18.7632C22.0854 19.0479 22.6917 19.4593 23.1708 19.9974L21.7306 21.4606C21.0389 20.6973 20.0749 20.3157 18.8385 20.3157C18.1149 20.3157 17.4884 20.4531 16.9591 20.7282C16.4299 21.0033 16.0311 21.3897 15.7628 21.8875C15.4944 22.3854 15.3602 23.0089 15.3602 23.7581C15.3602 24.5072 15.4944 25.1307 15.7628 25.6286C16.0311 26.1264 16.4299 26.5129 16.9591 26.7879C17.4884 27.063 18.1149 27.2006 18.8385 27.2006C20.0749 27.2006 21.0389 26.819 21.7306 26.0557L23.1708 27.5253C22.6917 28.0634 22.0854 28.4748 21.3519 28.7595C20.6184 29.0538 19.7835 29.2009 18.8472 29.2109Z" fill="black"/>
  <path d="M34.3553 18.5194H36.6603V29.0198H34.3553V27.6968H34.2822C34.0469 28.1393 33.6901 28.4974 33.212 28.7712C32.7338 29.0452 32.1557 29.1821 31.4776 29.1821C30.7035 29.1821 30.0206 29.0039 29.4292 28.6473C28.8378 28.2908 28.3726 27.7728 28.0336 27.0933C27.6947 26.4139 27.5252 25.6141 27.5252 24.6939V18.5194H29.8302V24.3735C29.8302 25.1226 30.0173 25.7023 30.3917 26.1127C30.766 26.523 31.2893 26.7282 31.9615 26.7282C32.3618 26.7282 32.7217 26.6414 33.0412 26.468C33.3608 26.2945 33.6163 26.041 33.8079 25.7076C33.9995 25.3741 34.0953 24.9702 34.0953 24.496V18.5194H34.3553Z" fill="black"/>
  <path d="M40.8385 18.519H43.1435V19.902H43.2166C43.4031 19.4014 43.7114 19.0031 44.1419 18.7072C44.5723 18.4114 45.0844 18.2635 45.6784 18.2635C45.9395 18.2635 46.1837 18.2923 46.4109 18.3499C46.638 18.4076 46.8208 18.4739 46.9591 18.549L46.2049 20.7447C46.0883 20.6678 45.9408 20.6101 45.7622 20.5716C45.5837 20.5332 45.3792 20.5138 45.1487 20.5138C44.7485 20.5138 44.3886 20.6102 44.0691 20.8028C43.7495 20.9955 43.4941 21.2566 43.3025 21.5866C43.1109 21.9165 43.0151 22.2849 43.0151 22.6919V29.0193H40.7101V18.519H40.8385Z" fill="black"/>
  <path d="M53.7778 29.2109C52.6448 29.2109 51.6548 28.9888 50.8079 28.5448C49.9609 28.1007 49.3012 27.4772 48.8286 26.6741C48.356 25.8709 48.1198 24.9354 48.1198 23.8671C48.1198 22.8181 48.3526 21.8934 48.8183 21.0934C49.284 20.2933 49.9268 19.6697 50.7468 19.2224C51.5668 18.7752 52.5014 18.5515 53.5507 18.5515C54.5687 18.5515 55.472 18.7701 56.2608 19.2073C57.0496 19.6445 57.6688 20.2582 58.1184 21.0485C58.568 21.8387 58.7928 22.7576 58.7928 23.8052C58.7928 23.9368 58.7841 24.0684 58.7667 24.1999C58.7493 24.3315 58.732 24.4438 58.7146 24.5368H50.3559C50.4029 25.2666 50.6799 25.8384 51.1871 26.2519C51.6944 26.6655 52.319 26.8722 53.0612 26.8722C53.6179 26.8722 54.0895 26.7564 54.4759 26.5248C54.8624 26.2932 55.1503 25.9857 55.3407 25.6024L57.5074 26.2327C57.1906 27.1593 56.6179 27.8914 55.7893 28.4288C54.9608 28.9663 53.9515 29.2345 52.7611 29.2345L53.7778 29.2109Z" fill="black"/>
  <path d="M63.2911 29.0197H60.9861V18.5193H63.2127V19.9023H63.2858C63.5211 18.9949 63.9039 18.3939 64.434 18.0998C64.9641 17.8058 65.5682 17.6588 66.2463 17.6588C66.9357 17.6588 67.5384 17.8313 68.0546 18.1765C68.5707 18.5218 68.9476 19.0284 69.185 19.6962H69.2582C69.5199 19.0412 69.9304 18.5381 70.4899 18.1871C71.0493 17.836 71.7014 17.6605 72.446 17.6605C73.4292 17.6605 74.2389 17.9887 74.875 18.6451C75.5111 19.3016 75.8292 20.2288 75.8292 21.4265V29.0215H73.5242V21.8638C73.5242 21.1723 73.3378 20.6606 72.9651 20.3287C72.5924 19.9968 72.1394 19.8309 71.6059 19.8309C70.9452 19.8309 70.4169 20.0324 70.021 20.4354C69.6251 20.8384 69.4272 21.3731 69.4272 22.0394V29.0215H67.1222V21.8638C67.1222 21.1723 66.9357 20.6606 66.563 20.3287C66.1903 19.9968 65.7373 19.8309 65.2038 19.8309C64.5431 19.8309 64.0149 20.0324 63.619 20.4354C63.2231 20.8384 63.0251 21.3731 63.0251 22.0394V29.0215L63.2911 29.0197Z" fill="black"/>
  <path d="M78.6842 29.0197V18.5193H80.9892V29.0197H78.6842ZM79.8367 16.827C79.4364 16.827 79.0848 16.6841 78.7818 16.3983C78.4788 16.1125 78.3273 15.7641 78.3273 15.3529C78.3273 14.9418 78.4788 14.5933 78.7818 14.3075C79.0848 14.0217 79.4364 13.8789 79.8367 13.8789C80.2369 13.8789 80.5885 14.0217 80.8915 14.3075C81.1945 14.5933 81.346 14.9418 81.346 15.3529C81.346 15.7641 81.1945 16.1125 80.8915 16.3983C80.5885 16.6841 80.2369 16.827 79.8367 16.827Z" fill="black"/>
  <path d="M87.3613 29.2109C86.3433 29.2109 85.4513 28.9987 84.6852 28.5738C83.9191 28.1489 83.321 27.5254 82.8909 26.7033C82.4608 25.8811 82.2458 24.9016 82.2458 23.7643C82.2458 22.6272 82.4608 21.6528 82.8909 20.8415C83.321 20.0301 83.9191 19.4075 84.6852 18.9732C85.4513 18.539 86.3433 18.3218 87.3613 18.3218C88.5021 18.3218 89.4748 18.6119 90.2793 19.192C91.0837 19.7723 91.5974 20.5784 91.8201 21.6104H89.4748C89.3583 21.1382 89.121 20.7588 88.7636 20.4722C88.4061 20.1857 87.9351 20.0422 87.3526 20.0422C86.6164 20.0422 86.0242 20.3109 85.5758 20.8481C85.1274 21.3855 84.9032 22.4461 84.9032 23.6303C84.9032 24.8337 85.124 25.7313 85.5655 26.223C86.0069 26.7148 86.5992 26.9606 87.3526 26.9606C87.9351 26.9606 88.4113 26.8276 88.7809 26.5616C89.1506 26.2955 89.3931 25.9127 89.5096 25.4129H91.8549C91.6496 26.4065 91.1428 27.1956 90.3384 27.7793C89.5339 28.3633 88.5558 28.6552 87.3613 28.6552V29.2109Z" fill="black"/>
  <path d="M102.071 23.5859C102.071 23.6982 102.063 23.8426 102.045 24.0194H94.3604C94.4291 24.7107 94.6697 25.2502 95.0821 25.6375C95.4946 26.0248 96.0165 26.2183 96.6478 26.2183C97.58 26.2183 98.2383 25.7986 98.6229 24.9594H101.788C101.552 25.7457 101.154 26.4371 100.593 27.0337C100.033 27.6302 99.3389 28.0951 98.5111 28.4285C97.6832 28.762 96.7656 28.9287 95.758 28.9287C94.5241 28.9287 93.4335 28.6975 92.4864 28.235C91.5393 27.7724 90.8033 27.1263 90.2782 26.2965C89.7532 25.4668 89.4907 24.4896 89.4907 23.3652C89.4907 22.2406 89.7497 21.2633 90.2678 20.4337C90.7859 19.6038 91.5184 18.9578 92.4655 18.4952C93.4127 18.0328 94.5068 17.8015 95.7493 17.8015C96.9574 17.8015 98.0306 18.0276 98.969 18.4797C99.9074 18.9319 100.642 19.5676 101.17 20.3868C101.698 21.2059 101.962 22.1677 101.962 23.2719C101.962 23.3589 101.998 23.4617 102.071 23.5802V23.5859ZM96.8948 20.1218C96.3352 20.1218 95.8594 20.2937 95.4677 20.6376C95.0759 20.9815 94.8198 21.4579 94.6993 22.0667H98.9944C98.9083 21.4931 98.6799 21.0321 98.3092 20.6838C97.9385 20.3355 97.4696 20.1617 96.8948 20.1617V20.1218Z" fill="black"/>
  <path d="M11.1985 25.4977C10.5581 26.4557 9.15121 26.7232 8.19305 26.0826C8.4884 27.2329 7.80566 28.4133 6.65552 28.7087C5.50537 29.0041 4.33283 28.3211 4.03748 27.1708C4.00283 27.0245 3.97989 26.876 3.96866 26.7253C2.83023 26.8738 1.81671 26.0848 1.66822 24.9467C1.51973 23.8085 2.30854 22.795 3.44697 22.6464C3.59546 22.6244 3.74394 22.6178 3.89073 22.6244C3.80974 21.4918 4.596 20.4717 5.7288 20.3254C6.86159 20.179 7.88159 20.9659 8.02839 22.0984C8.03497 22.1534 8.03961 22.2083 8.04221 22.2633C8.04221 22.2644 8.04221 22.2655 8.04221 22.2666C9.01369 22.1599 9.91471 22.7767 10.1924 23.7225C10.4788 24.6959 10.0197 25.7122 9.16407 26.192C9.82461 25.2758 9.63682 24.0025 8.67892 23.3413C7.67872 22.6534 6.35341 22.933 5.66568 23.9329C6.32881 23.0167 6.14102 21.7434 5.18311 21.0822C4.18292 20.3943 2.85761 20.6739 2.16988 21.6738C2.05165 21.8377 1.95902 22.0182 1.89293 22.2083C1.69131 22.7876 1.76135 23.4053 2.0567 23.9263C2.16137 24.1157 2.29778 24.2862 2.45805 24.4347C1.97686 24.0575 1.31238 24.0355 0.822275 24.4347C0.245675 24.9071 0.186578 25.779 0.658843 26.3559C1.13111 26.9327 1.99951 26.9997 2.57611 26.5272C2.65185 26.4646 2.71924 26.3954 2.77945 26.3184C2.4841 27.4687 3.16684 28.6491 4.31698 28.9445C5.46713 29.2399 6.63967 28.5569 6.93502 27.4066C6.96967 27.2603 6.99261 27.1118 7.00385 26.9612C7.24253 26.9953 7.48252 26.995 7.7212 26.9611C7.71914 27.1118 7.7343 27.2603 7.76895 27.4066C8.06431 28.5569 9.23684 29.2399 10.387 28.9445C11.5371 28.6491 12.2198 27.4687 11.9245 26.3184C11.889 26.1745 11.8394 26.0351 11.7782 25.9068C11.5864 25.7649 11.4032 25.6461 11.1985 25.4977Z" fill="#1890FF"/>
</svg> 