<svg width="120" height="40" viewBox="0 0 120 40" fill="none" xmlns="http://www.w3.org/2000/svg">
  <path fill-rule="evenodd" clip-rule="evenodd" d="M43.2217 11.8018C38.6434 11.8018 35.2981 15.0771 35.2981 19.5689C35.2981 24.0607 38.6434 27.336 43.2217 27.336C43.8653 27.336 44.4865 27.2712 45.0779 27.1475V23.5235C44.5847 23.82 44.0017 23.9899 43.3764 23.9899C40.9483 23.9899 39.2634 22.2175 39.2634 19.5689C39.2634 16.9203 40.9483 15.1479 43.3764 15.1479C44.0016 15.1479 44.5846 15.3178 45.0778 15.6143V11.9902C44.4863 11.8666 43.8652 11.8018 43.2217 11.8018Z" fill="black"/>
  <path fill-rule="evenodd" clip-rule="evenodd" d="M62.6562 12.1514H58.4907V27.336H62.6562V12.1514Z" fill="black"/>
  <path fill-rule="evenodd" clip-rule="evenodd" d="M74.9339 12.1514H70.7684V27.336H74.9339V19.5649V12.1514Z" fill="black"/>
  <path fill-rule="evenodd" clip-rule="evenodd" d="M74.9339 12.1514H70.7684V27.336H74.9339V12.1514Z" fill="black"/>
  <path fill-rule="evenodd" clip-rule="evenodd" d="M49.8242 11.8018C45.2459 11.8018 41.9006 15.0771 41.9006 19.5689C41.9006 24.0607 45.2459 27.336 49.8242 27.336C50.4678 27.336 51.089 27.2712 51.6804 27.1475V23.5235C51.1872 23.82 50.6042 23.9899 49.9789 23.9899C47.5508 23.9899 45.8659 22.2175 45.8659 19.5689C45.8659 16.9203 47.5508 15.1479 49.9789 15.1479C50.6041 15.1479 51.1871 15.3178 51.6803 15.6143V11.9902C51.0888 11.8666 50.4677 11.8018 49.8242 11.8018Z" fill="black"/>
  <path fill-rule="evenodd" clip-rule="evenodd" d="M79.5352 19.743C79.5352 24.0607 82.8805 27.336 87.4588 27.336C92.0371 27.336 95.3824 24.0607 95.3824 19.743C95.3824 15.4254 92.0371 12.1501 87.4588 12.1501C82.8805 12.1501 79.5352 15.4254 79.5352 19.743ZM87.4588 24.1643C85.0307 24.1643 83.3458 22.3919 83.3458 19.7433C83.3458 17.0947 85.0307 15.3223 87.4588 15.3223C89.8869 15.3223 91.5718 17.0947 91.5718 19.7433C91.5718 22.3919 89.8869 24.1643 87.4588 24.1643Z" fill="black"/>
  <path fill-rule="evenodd" clip-rule="evenodd" d="M54.5261 12.1514H58.6914V27.336H54.5261V12.1514Z" fill="black"/>
  <path fill-rule="evenodd" clip-rule="evenodd" d="M66.8234 12.1514H62.6581V27.336H66.8234V12.1514Z" fill="black"/>
  <path fill-rule="evenodd" clip-rule="evenodd" d="M70.7686 12.1514V27.336H74.9337V12.1514H70.7686Z" fill="black"/>
</svg> 